<svg id="Layer_1" enable-background="new 0 0 512 512" height="512" viewBox="0 0 512 512" width="512" xmlns="http://www.w3.org/2000/svg"><g><g><path d="m187.708 48-12.686-12.686c-2.122-2.122-3.314-4.999-3.314-8 0-6.248 5.065-11.314 11.314-11.314h105.373c6.248 0 11.314 5.065 11.314 11.314 0 3.001-1.192 5.878-3.314 8l-12.687 12.686z" fill="#d76e28"/></g><g><path d="m235.708 16h52.686c6.248 0 11.314 5.065 11.314 11.314 0 3.001-1.192 5.878-3.314 8l-12.686 12.686h-48z" fill="#aa5a28"/></g><g><g><path d="m283.708 183.33v-103.33c8.837 0 16-7.163 16-16 0-8.837-7.163-16-16-16h-96c-8.837 0-16 7.163-16 16 0 8.837 7.163 16 16 16v103.33c-64.913 20.389-112 81.029-112 152.67 0 88.365 71.634 160 160 160s160-71.635 160-160c0-71.642-47.087-132.281-112-152.67z" fill="#e6aafa"/></g><g><path d="m283.708 183.33v-103.33h-96v16h32c8.837 0 16 7.163 16 16v64l50.745 50.745c40.318 40.318 11.763 109.255-45.254 109.255h-165.491c0 88.365 71.634 160 160 160 88.365 0 160-71.634 160-160 0-71.642-47.087-132.281-112-152.67z" fill="#be82d2"/></g><g><path d="m111.073 263.839c-12.347 21.278-19.405 46.006-19.364 72.387.122 79.345 66.604 144.81 145.942 143.761 78.634-1.039 142.058-65.106 142.058-143.987 0-26.2-7.001-50.763-19.229-71.927-2.875-4.976-8.157-8.073-13.904-8.073h-221.738c-5.651 0-10.929 2.952-13.765 7.839z" fill="#9b5faa"/></g><g><path d="m360.479 264.073c-2.875-4.976-8.157-8.073-13.904-8.073h-43.206c9.683 37.707-17.51 80-62.17 80h-149.487c0 .076-.004.151-.003.226.122 79.345 66.604 144.81 145.942 143.761 78.634-1.039 142.058-65.106 142.058-143.987-.001-26.2-7.002-50.763-19.23-71.927z" fill="#784687"/></g><g><circle cx="203.708" cy="288" fill="#784687" r="16"/></g><g><circle cx="235.708" cy="416" fill="#9b5faa" r="32"/></g><g><circle cx="331.708" cy="352" fill="#9b5faa" r="16"/></g><g><path d="m211.708 136c-4.418 0-8-3.582-8-8v-8c0-4.418 3.582-8 8-8s8 3.582 8 8v8c0 4.418-3.581 8-8 8z" fill="#fff"/></g><g><path d="m99.708 344c-4.418 0-8-3.582-8-8 0-64.845 43.651-121.993 106.151-138.974 3.444-.936 5.849-4.154 5.849-7.827v-29.199c0-4.418 3.582-8 8-8s8 3.582 8 8v29.199c0 10.875-7.259 20.443-17.654 23.267-55.549 15.093-94.346 65.892-94.346 123.534 0 4.418-3.581 8-8 8z" fill="#fff"/></g></g><g><g><path d="m347.708 56h24v-28c0-6.627-5.373-12-12-12-6.627 0-12 5.373-12 12z" fill="#e6aafa"/></g><g><path d="m359.708 120c6.627 0 12-5.373 12-12v-28h-24v28c0 6.627 5.373 12 12 12z" fill="#e6aafa"/></g><g><path d="m347.708 80v-24h-28c-6.627 0-12 5.373-12 12 0 6.627 5.373 12 12 12z" fill="#e6aafa"/></g><g><path d="m411.708 68c0-6.627-5.373-12-12-12h-28v24h28c6.628 0 12-5.373 12-12z" fill="#e6aafa"/></g></g><g><g><path d="m75.708 136h24v-28c0-6.627-5.373-12-12-12-6.627 0-12 5.373-12 12z" fill="#e6aafa"/></g><g><path d="m87.708 200c6.627 0 12-5.373 12-12v-28h-24v28c0 6.627 5.373 12 12 12z" fill="#e6aafa"/></g><g><path d="m75.708 160v-24h-28c-6.627 0-12 5.373-12 12 0 6.627 5.373 12 12 12z" fill="#e6aafa"/></g><g><path d="m139.708 148c0-6.627-5.373-12-12-12h-28v24h28c6.628 0 12-5.373 12-12z" fill="#e6aafa"/></g></g><g><g><path d="m411.708 200h24v-28c0-6.627-5.373-12-12-12-6.627 0-12 5.373-12 12z" fill="#e6aafa"/></g><g><path d="m423.708 264c6.627 0 12-5.373 12-12v-28h-24v28c0 6.627 5.373 12 12 12z" fill="#e6aafa"/></g><g><path d="m411.708 224v-24h-28c-6.627 0-12 5.373-12 12 0 6.627 5.373 12 12 12z" fill="#e6aafa"/></g><g><path d="m475.708 212c0-6.627-5.373-12-12-12h-28v24h28c6.628 0 12-5.373 12-12z" fill="#e6aafa"/></g></g></g></svg>